<svg width="429" height="866" viewBox="0 0 429 866" fill="none" xmlns="http://www.w3.org/2000/svg">
<path fill-rule="evenodd" clip-rule="evenodd" d="M425 199H426C427.105 199 428 199.895 428 201V297C428 298.105 427.105 299 426 299H425V199Z" fill="#121515"/>
<path fill-rule="evenodd" clip-rule="evenodd" d="M1 259C1 257.895 1.89543 257 3 257H4V320H3C1.89543 320 1 319.105 1 318V259Z" fill="#121515"/>
<path fill-rule="evenodd" clip-rule="evenodd" d="M1 180C1 178.895 1.89543 178 3 178H4V241H3C1.89543 241 1 240.105 1 239V180Z" fill="#121515"/>
<path fill-rule="evenodd" clip-rule="evenodd" d="M1 119C1 117.895 1.89543 117 3 117H4V150H3C1.89543 150 1 149.105 1 148V119Z" fill="#121515"/>
<g filter="url(#filter0_dd_2017_677)">
<path fill-rule="evenodd" clip-rule="evenodd" d="M4 65C4 30.2061 32.2061 2 67 2H362C396.794 2 425 30.2061 425 65V797C425 831.794 396.794 860 362 860H67C32.2061 860 4 831.794 4 797V65Z" fill="#3A4245"/>
</g>
<path fill-rule="evenodd" clip-rule="evenodd" d="M9 65C9 32.9675 34.9675 7 67 7H362C394.033 7 420 32.9675 420 65V797C420 829.033 394.033 855 362 855H67C34.9675 855 9 829.033 9 797V65Z" fill="#121515"/>
<path fill-rule="evenodd" clip-rule="evenodd" d="M260 42C264.418 42 268 38.4183 268 34C268 29.5817 264.418 26 260 26C255.582 26 252 29.5817 252 34C252 38.4183 255.582 42 260 42Z" fill="#262C2D"/>
<path fill-rule="evenodd" clip-rule="evenodd" d="M260 39C262.761 39 265 36.7614 265 34C265 31.2386 262.761 29 260 29C257.239 29 255 31.2386 255 34C255 36.7614 257.239 39 260 39Z" fill="#121515"/>
<path opacity="0.4" fill-rule="evenodd" clip-rule="evenodd" d="M260 33C260.552 33 261 32.5523 261 32C261 31.4477 260.552 31 260 31C259.448 31 259 31.4477 259 32C259 32.5523 259.448 33 260 33Z" fill="#636F73"/>
<path fill-rule="evenodd" clip-rule="evenodd" d="M189 34C189 32.3431 190.343 31 192 31H237C238.657 31 240 32.3431 240 34V34C240 35.6569 238.657 37 237 37H192C190.343 37 189 35.6569 189 34V34Z" fill="#262C2D"/>
<g clip-path="url(#clip0_2017_677)">
<path d="M27 76.2C27 58.2783 27 49.3175 30.4878 42.4723C33.5557 36.4511 38.4511 31.5557 44.4723 28.4878C51.3175 25 60.2783 25 78.2 25H350.8C368.722 25 377.683 25 384.528 28.4878C390.549 31.5557 395.444 36.4511 398.512 42.4723C402 49.3175 402 58.2783 402 76.2V785.8C402 803.722 402 812.682 398.512 819.528C395.444 825.549 390.549 830.444 384.528 833.512C377.683 837 368.722 837 350.8 837H78.2C60.2783 837 51.3175 837 44.4723 833.512C38.4511 830.444 33.5557 825.549 30.4878 819.528C27 812.682 27 803.722 27 785.8V76.2Z" fill="#6E1DBE"/>
<path fill-rule="evenodd" clip-rule="evenodd" d="M213.439 416.417C210.446 416.459 207.782 415.999 205.447 415.034C203.132 414.049 201.288 412.549 199.916 410.532C198.563 408.495 197.864 405.929 197.82 402.835C197.783 400.229 198.21 398.024 199.1 396.219C199.991 394.414 201.232 392.941 202.824 391.798C204.416 390.655 206.257 389.784 208.346 389.184C210.434 388.564 212.668 388.135 215.047 387.897C217.71 387.615 219.854 387.33 221.479 387.042C223.104 386.733 224.279 386.32 225.004 385.8C225.75 385.26 226.116 384.512 226.102 383.555L226.1 383.402C226.078 381.835 225.521 380.631 224.43 379.791C223.338 378.952 221.877 378.545 220.045 378.571C218.07 378.599 216.488 379.05 215.299 379.922C214.11 380.794 213.364 381.986 213.06 383.497L199.281 383.205C199.647 380.349 200.659 377.79 202.317 375.526C203.994 373.242 206.31 371.437 209.264 370.112C212.238 368.767 215.822 368.064 220.016 368.004C223.008 367.961 225.772 368.278 228.306 368.954C230.841 369.61 233.054 370.597 234.946 371.914C236.838 373.21 238.306 374.818 239.352 376.738C240.418 378.657 240.969 380.858 241.004 383.342L241.46 415.222L227.413 415.423L227.32 408.888L226.953 408.893C226.141 410.493 225.092 411.852 223.804 412.97C222.538 414.088 221.033 414.934 219.29 415.508C217.567 416.083 215.617 416.386 213.439 416.417ZM217.91 406.579C219.518 406.556 220.959 406.21 222.232 405.54C223.526 404.87 224.551 403.959 225.308 402.808C226.065 401.637 226.433 400.288 226.411 398.761L226.348 394.302C225.923 394.532 225.407 394.743 224.799 394.935C224.211 395.127 223.562 395.309 222.852 395.482C222.142 395.655 221.411 395.808 220.659 395.941C219.908 396.074 219.187 396.197 218.496 396.308C217.095 396.552 215.898 396.916 214.908 397.398C213.937 397.88 213.193 398.502 212.674 399.263C212.176 400.003 211.934 400.882 211.948 401.9C211.97 403.447 212.537 404.62 213.648 405.418C214.779 406.217 216.2 406.603 217.91 406.579ZM167.639 420.719C162.756 419.922 158.73 418.234 155.562 415.654C152.414 413.077 150.197 409.848 148.912 405.966C147.63 402.064 147.375 397.752 148.145 393.03C148.919 388.288 150.533 384.281 152.985 381.009C155.461 377.721 158.601 375.355 162.405 373.913C166.23 372.474 170.563 372.15 175.406 372.941C179.686 373.639 183.287 375.021 186.209 377.087C189.152 379.155 191.286 381.752 192.612 384.877C193.961 387.986 194.376 391.447 193.857 395.261L180.082 393.013C180.188 390.596 179.688 388.606 178.581 387.043C177.495 385.484 175.897 384.532 173.787 384.188C172.079 383.909 170.503 384.147 169.06 384.901C167.619 385.636 166.385 386.878 165.357 388.629C164.352 390.363 163.626 392.596 163.18 395.329C162.734 398.062 162.709 400.43 163.104 402.434C163.522 404.42 164.296 406.001 165.424 407.175C166.556 408.33 167.976 409.046 169.684 409.325C171.05 409.548 172.304 409.454 173.444 409.041C174.604 408.632 175.617 407.921 176.484 406.907C177.354 405.873 178.012 404.557 178.459 402.959L192.233 405.208C191.47 409.002 189.971 412.182 187.737 414.747C185.523 417.315 182.699 419.134 179.265 420.203C175.855 421.255 171.979 421.427 167.639 420.719ZM251.305 371.537L246.831 418.232L261.697 419.656L264.126 394.302C264.305 392.438 264.855 390.854 265.778 389.552C266.722 388.231 267.931 387.253 269.403 386.617C270.897 385.962 272.526 385.719 274.289 385.888C275.181 385.974 276.188 386.142 277.309 386.392C278.451 386.645 279.365 386.927 280.051 387.238L281.289 374.318C280.678 374.075 280.011 373.878 279.29 373.727C278.57 373.556 277.865 373.437 277.176 373.371C274.623 373.127 272.31 373.672 270.239 375.008C268.17 376.323 266.562 378.48 265.416 381.479L264.93 381.433L265.745 372.92L251.305 371.537ZM157.523 493.062L151.34 434.199L164.829 432.781L165.599 440.111L166.017 440.068C166.438 438.708 167.096 437.371 167.991 436.056C168.905 434.739 170.121 433.616 171.638 432.686C173.173 431.736 175.064 431.143 177.313 430.907C180.285 430.594 183.145 431.083 185.892 432.372C188.657 433.66 191.009 435.845 192.949 438.929C194.889 442.013 196.123 446.072 196.652 451.108C197.161 455.957 196.817 460.098 195.618 463.53C194.438 466.96 192.633 469.63 190.204 471.538C187.793 473.444 185.008 474.564 181.849 474.895C179.694 475.122 177.789 474.965 176.136 474.425C174.482 473.885 173.056 473.095 171.858 472.056C170.677 471.016 169.73 469.866 169.016 468.607L168.737 468.636L171.152 491.63L157.523 493.062ZM166.939 454.201C167.181 456.505 167.698 458.479 168.491 460.124C169.302 461.767 170.343 463.001 171.613 463.826C172.9 464.63 174.37 464.945 176.023 464.771C177.696 464.596 179.068 463.982 180.141 462.93C181.212 461.859 181.955 460.438 182.37 458.666C182.804 456.892 182.9 454.854 182.658 452.55C182.416 450.246 181.899 448.28 181.108 446.654C180.336 445.026 179.316 443.808 178.048 443.002C176.798 442.194 175.328 441.879 173.637 442.057C171.965 442.232 170.591 442.837 169.517 443.87C168.442 444.904 167.677 446.299 167.223 448.056C166.787 449.812 166.693 451.86 166.939 454.201ZM210.7 480.187L222.422 424.004L209.007 421.205L197.285 477.388L210.7 480.187ZM221.359 482.02L229.679 439.787L243.125 442.436L234.804 484.669L221.359 482.02ZM237.386 436.193C235.498 435.821 233.998 434.878 232.887 433.364C231.78 431.832 231.401 430.177 231.752 428.399C232.098 426.639 233.073 425.27 234.675 424.291C236.28 423.293 238.027 422.98 239.915 423.352C241.822 423.728 243.319 424.68 244.408 426.208C245.519 427.722 245.901 429.359 245.555 431.118C245.204 432.896 244.226 434.284 242.621 435.282C241.037 436.265 239.292 436.568 237.386 436.193ZM275.324 451.191L275.276 441.103L267.513 441.14L267.464 430.827L253.761 430.892L253.81 441.205L248.121 441.232L248.169 451.321L253.858 451.293L253.957 472.227C253.934 475.142 254.525 477.559 255.729 479.477C256.953 481.396 258.706 482.807 260.99 483.712C263.292 484.598 266.05 484.958 269.262 484.793C270.906 484.711 272.316 484.527 273.492 484.241C274.686 483.955 275.61 483.717 276.263 483.527L274.142 473.645C273.843 473.721 273.395 473.816 272.798 473.931C272.219 474.027 271.668 474.077 271.145 474.079C270.417 474.083 269.79 473.983 269.266 473.78C268.742 473.558 268.339 473.196 268.056 472.693C267.792 472.171 267.658 471.489 267.654 470.649L267.561 451.228L275.324 451.191Z" fill="white"/>
</g>
<defs>
<filter id="filter0_dd_2017_677" x="0" y="0" width="429" height="866" filterUnits="userSpaceOnUse" color-interpolation-filters="sRGB">
<feFlood flood-opacity="0" result="BackgroundImageFix"/>
<feColorMatrix in="SourceAlpha" type="matrix" values="0 0 0 0 0 0 0 0 0 0 0 0 0 0 0 0 0 0 127 0" result="hardAlpha"/>
<feOffset/>
<feGaussianBlur stdDeviation="1"/>
<feColorMatrix type="matrix" values="0 0 0 0 0 0 0 0 0 0.0823529 0 0 0 0 0.25098 0 0 0 0.14 0"/>
<feBlend mode="normal" in2="BackgroundImageFix" result="effect1_dropShadow_2017_677"/>
<feColorMatrix in="SourceAlpha" type="matrix" values="0 0 0 0 0 0 0 0 0 0 0 0 0 0 0 0 0 0 127 0" result="hardAlpha"/>
<feOffset dy="2"/>
<feGaussianBlur stdDeviation="2"/>
<feColorMatrix type="matrix" values="0 0 0 0 0 0 0 0 0 0.0823529 0 0 0 0 0.25098 0 0 0 0.05 0"/>
<feBlend mode="normal" in2="effect1_dropShadow_2017_677" result="effect2_dropShadow_2017_677"/>
<feBlend mode="normal" in="SourceGraphic" in2="effect2_dropShadow_2017_677" result="shape"/>
</filter>
<clipPath id="clip0_2017_677">
<rect width="375" height="812" fill="white" transform="translate(27 25)"/>
</clipPath>
</defs>
</svg>
