<svg width="429" height="866" viewBox="0 0 429 866" fill="none" xmlns="http://www.w3.org/2000/svg">
<path fill-rule="evenodd" clip-rule="evenodd" d="M425 199H426C427.105 199 428 199.895 428 201V297C428 298.105 427.105 299 426 299H425V199Z" fill="#121515"/>
<path fill-rule="evenodd" clip-rule="evenodd" d="M1 259C1 257.895 1.89543 257 3 257H4V320H3C1.89543 320 1 319.105 1 318V259Z" fill="#121515"/>
<path fill-rule="evenodd" clip-rule="evenodd" d="M1 180C1 178.895 1.89543 178 3 178H4V241H3C1.89543 241 1 240.105 1 239V180Z" fill="#121515"/>
<path fill-rule="evenodd" clip-rule="evenodd" d="M1 119C1 117.895 1.89543 117 3 117H4V150H3C1.89543 150 1 149.105 1 148V119Z" fill="#121515"/>
<g filter="url(#filter0_dd_3118_319)">
<path fill-rule="evenodd" clip-rule="evenodd" d="M4 65C4 30.2061 32.2061 2 67 2H362C396.794 2 425 30.2061 425 65V797C425 831.794 396.794 860 362 860H67C32.2061 860 4 831.794 4 797V65Z" fill="#3A4245"/>
</g>
<path fill-rule="evenodd" clip-rule="evenodd" d="M9 65C9 32.9675 34.9675 7 67 7H362C394.033 7 420 32.9675 420 65V797C420 829.033 394.033 855 362 855H67C34.9675 855 9 829.033 9 797V65Z" fill="#121515"/>
<path fill-rule="evenodd" clip-rule="evenodd" d="M260 42C264.418 42 268 38.4183 268 34C268 29.5817 264.418 26 260 26C255.582 26 252 29.5817 252 34C252 38.4183 255.582 42 260 42Z" fill="#262C2D"/>
<path fill-rule="evenodd" clip-rule="evenodd" d="M260 39C262.761 39 265 36.7614 265 34C265 31.2386 262.761 29 260 29C257.239 29 255 31.2386 255 34C255 36.7614 257.239 39 260 39Z" fill="#121515"/>
<path opacity="0.4" fill-rule="evenodd" clip-rule="evenodd" d="M260 33C260.552 33 261 32.5523 261 32C261 31.4477 260.552 31 260 31C259.448 31 259 31.4477 259 32C259 32.5523 259.448 33 260 33Z" fill="#636F73"/>
<path fill-rule="evenodd" clip-rule="evenodd" d="M189 34C189 32.3431 190.343 31 192 31H237C238.657 31 240 32.3431 240 34V34C240 35.6569 238.657 37 237 37H192C190.343 37 189 35.6569 189 34V34Z" fill="#262C2D"/>
<g clip-path="url(#clip0_3118_319)">
<g clip-path="url(#clip1_3118_319)">
<mask id="mask0_3118_319" style="mask-type:luminance" maskUnits="userSpaceOnUse" x="27" y="25" width="375" height="812">
<path d="M370 25H59C41.3269 25 27 39.3269 27 57V805C27 822.673 41.3269 837 59 837H370C387.673 837 402 822.673 402 805V57C402 39.3269 387.673 25 370 25Z" fill="white"/>
</mask>
<g mask="url(#mask0_3118_319)">
<path d="M370 25H59C41.3269 25 27 39.3269 27 57V805C27 822.673 41.3269 837 59 837H370C387.673 837 402 822.673 402 805V57C402 39.3269 387.673 25 370 25Z" fill="#0519D0"/>
<path d="M200.018 431.449V432.563H188.473C188.937 435.008 190.639 436.401 193.085 436.401C194.632 436.401 196.303 436.03 198.099 435.256L199.275 437.856C197.077 438.815 194.911 439.31 192.775 439.31C190.423 439.31 188.504 438.537 187.049 437.02C185.594 435.472 184.852 433.461 184.852 431.015C184.852 428.539 185.594 426.528 187.049 425.011C188.504 423.494 190.392 422.721 192.713 422.721C195.158 422.721 196.984 423.556 198.191 425.197C199.399 426.837 200.018 428.911 200.018 431.449ZM188.38 429.963H196.706C196.489 427.239 195.158 425.568 192.713 425.568C190.268 425.568 188.72 427.332 188.38 429.963Z" fill="#FEFEFE"/>
<path d="M207.86 439.31C205.353 439.31 203.001 438.691 200.803 437.453L202.041 434.761C204.115 435.844 206.127 436.37 208.015 436.37C209.717 436.37 210.646 435.596 210.646 434.73C210.646 434.203 210.398 433.801 209.934 433.461C209.469 433.12 208.51 432.749 207.055 432.346C203.341 431.356 201.175 430.118 201.175 427.27C201.175 426.063 201.701 425.011 202.722 424.113C203.774 423.185 205.26 422.721 207.21 422.721C209.222 422.721 211.481 423.247 213.957 424.33L212.75 427.023C210.46 426.125 208.572 425.661 207.117 425.661C205.508 425.661 204.641 426.373 204.641 427.27C204.641 428.168 205.291 428.694 207.984 429.437C209.996 430.025 211.079 430.396 212.317 431.232C213.555 432.006 214.112 433.151 214.112 434.668C214.112 435.906 213.555 436.989 212.441 437.918C211.327 438.846 209.81 439.31 207.86 439.31Z" fill="#FEFEFE"/>
<path d="M224.414 435.875L224.723 438.97C223.826 439.187 222.711 439.279 221.319 439.279C217.666 439.279 216.924 436.494 216.924 434.853V426.125H214.695V422.937H216.924V419.533H220.483V422.937H224.63V426.125H220.483V434.389C220.483 435.534 221.009 436.091 222.061 436.091C222.897 436.091 223.671 436.03 224.414 435.875Z" fill="#FEFEFE"/>
<path d="M233.868 422.721C237.706 422.721 239.625 424.949 239.625 429.406V439.063H236.406L236.22 437.732C234.704 438.784 232.97 439.31 230.959 439.31C227.771 439.31 225.759 437.639 225.759 434.915C225.759 431.696 228.916 429.777 234.363 429.777C234.704 429.777 235.632 429.808 236.035 429.808V429.375C236.035 426.806 235.168 425.692 233.218 425.692C231.516 425.692 229.597 426.094 227.523 426.899L226.347 424.33C228.916 423.247 231.423 422.721 233.868 422.721ZM229.225 434.791C229.225 435.875 230.092 436.556 231.794 436.556C233.125 436.556 234.951 435.999 236.035 435.256V432.346H234.92C231.113 432.346 229.225 433.151 229.225 434.791Z" fill="#FEFEFE"/>
<path d="M249.432 422.721C251.722 422.721 253.579 423.494 255.034 425.042C256.489 426.558 257.231 428.57 257.231 431.015C257.231 433.461 256.489 435.472 255.034 436.989C253.579 438.506 251.722 439.279 249.432 439.279C248.349 439.279 247.08 439.094 245.594 438.753V445.934H242.035V426.373C242.035 425.475 242.344 424.825 242.963 424.454C244.696 423.309 246.863 422.721 249.432 422.721ZM249.215 436.215C251.939 436.215 253.703 434.142 253.703 431.046C253.703 427.951 251.97 425.847 249.215 425.847C248.008 425.847 246.801 426.094 245.594 426.558V435.689C246.925 436.03 248.132 436.215 249.215 436.215Z" fill="#FEFEFE"/>
<path d="M263.35 439.279C259.698 439.279 258.955 436.494 258.955 434.853V416.066H262.514V434.389C262.514 435.534 263.04 436.091 264.093 436.091C264.371 436.091 264.712 436.06 265.176 436.03L265.393 439.125C264.836 439.217 264.155 439.279 263.35 439.279Z" fill="#FEFEFE"/>
<path d="M269.818 420.368C268.982 421.204 267.434 421.204 266.568 420.368C266.165 419.935 265.949 419.378 265.949 418.697C265.949 418.016 266.165 417.459 266.568 417.057C267.434 416.221 268.982 416.221 269.818 417.057C270.684 417.892 270.684 419.502 269.818 420.368ZM269.972 439.063H266.413V422.937H269.972V439.063Z" fill="#FEFEFE"/>
<path d="M281.057 435.875L281.366 438.97C280.468 439.187 279.354 439.279 277.961 439.279C274.309 439.279 273.566 436.494 273.566 434.853V426.125H271.338V422.937H273.566V419.533H277.126V422.937H281.273V426.125H277.126V434.389C277.126 435.534 277.652 436.091 278.704 436.091C279.54 436.091 280.314 436.03 281.057 435.875Z" fill="#FEFEFE"/>
<path d="M178.302 436.857H177.749V420.432L178.649 420.24C178.865 420.198 179.07 420.113 179.253 419.991C179.436 419.868 179.592 419.71 179.714 419.527C179.835 419.343 179.918 419.137 179.959 418.921C180 418.705 179.998 418.483 179.952 418.267C179.906 418.052 179.818 417.848 179.692 417.667C179.567 417.487 179.407 417.333 179.221 417.214C179.035 417.096 178.828 417.016 178.611 416.979C178.394 416.942 178.172 416.948 177.958 416.997L148.112 423.63C147.712 423.716 147.359 423.947 147.119 424.278C146.879 424.609 146.77 425.017 146.813 425.423C146.855 425.83 147.047 426.206 147.35 426.481C147.653 426.755 148.047 426.907 148.456 426.908C148.574 426.909 148.691 426.897 148.806 426.873L149.01 426.828V436.857H148.456C148.016 436.857 147.595 437.032 147.284 437.343C146.973 437.654 146.798 438.075 146.798 438.515C146.798 438.955 146.973 439.377 147.284 439.688C147.595 439.998 148.016 440.173 148.456 440.173H178.302C178.742 440.173 179.163 439.998 179.474 439.688C179.785 439.377 179.96 438.955 179.96 438.515C179.96 438.075 179.785 437.654 179.474 437.343C179.163 437.032 178.742 436.857 178.302 436.857ZM152.325 426.117L174.433 421.142V436.857H167.985V435.378H168.911C169.949 435.378 170.719 434.418 170.494 433.405L169.459 428.746C169.459 428.306 169.284 427.884 168.973 427.573C168.662 427.262 168.24 427.088 167.801 427.088H159.326C158.886 427.088 158.464 427.262 158.153 427.573C157.843 427.884 157.668 428.306 157.668 428.746L156.632 433.405C156.407 434.418 157.178 435.378 158.215 435.378H159.142V436.857H152.325V426.117ZM167.78 431.458C167.885 431.919 167.535 432.358 167.062 432.358H160.065C159.592 432.358 159.241 431.919 159.346 431.458L159.733 429.757C159.818 429.381 160.152 429.114 160.537 429.114H166.589C166.974 429.114 167.308 429.381 167.394 429.757L167.78 431.458ZM161.352 435.378H165.774V436.857H161.352V435.378Z" fill="#FEFEFE"/>
<path d="M104.812 731.1V731.94H97.5119C97.8719 733.3 98.7719 733.98 100.232 733.98C101.212 733.98 102.272 733.72 103.452 733.22L104.332 735.16C102.932 735.82 101.472 736.16 99.9519 736.16C98.3719 736.16 97.1119 735.66 96.1319 734.66C95.1519 733.64 94.6719 732.34 94.6719 730.74C94.6719 729.14 95.1519 727.84 96.1319 726.84C97.1119 725.84 98.3919 725.34 99.9319 725.34C101.532 725.34 102.752 725.88 103.572 726.96C104.392 728.02 104.812 729.4 104.812 731.1ZM99.9319 727.5C98.5519 727.5 97.6519 728.5 97.4319 730.02H102.252C102.072 728.34 101.312 727.5 99.9319 727.5ZM110.916 736.16C109.256 736.16 107.676 735.74 106.176 734.92L107.096 732.86C108.556 733.56 109.876 733.92 111.056 733.92C111.996 733.92 112.436 733.56 112.436 733.1C112.436 732.84 112.296 732.62 112.036 732.44C111.776 732.26 111.216 732.04 110.356 731.8C109.176 731.48 108.456 731.2 107.656 730.7C106.856 730.16 106.436 729.38 106.436 728.4C106.436 727.58 106.796 726.88 107.496 726.26C108.196 725.64 109.216 725.34 110.516 725.34C111.876 725.34 113.396 725.7 115.076 726.42L114.156 728.48C112.596 727.88 111.356 727.58 110.436 727.58C109.576 727.58 109.136 727.92 109.136 728.38C109.136 728.86 109.516 729.14 111.096 729.6C112.436 730 113.096 730.24 113.916 730.78C114.776 731.28 115.136 732.04 115.136 733.06C115.136 733.88 114.756 734.62 114.016 735.24C113.276 735.86 112.236 736.16 110.916 736.16ZM123.007 733.56L123.227 735.94C122.587 736.08 121.827 736.16 120.927 736.16C119.707 736.16 118.787 735.7 118.387 735.04C117.987 734.34 117.827 733.74 117.827 733.08V727.94H116.407V725.5H117.827V723.34H120.607V725.5H123.207V727.94H120.607V732.68C120.607 733.34 120.927 733.68 121.567 733.68C122.047 733.68 122.527 733.64 123.007 733.56ZM130.15 725.34C132.79 725.34 134.11 726.84 134.11 729.86V736H131.57L131.47 735.18C130.53 735.84 129.41 736.16 128.13 736.16C126.05 736.16 124.75 735.08 124.75 733.26C124.75 731.16 126.85 729.88 130.39 729.88C130.81 729.88 131.11 729.88 131.31 729.9V729.8C131.31 728.26 130.77 727.62 129.57 727.62C128.53 727.62 127.35 727.86 126.01 728.36L125.13 726.42C126.91 725.7 128.59 725.34 130.15 725.34ZM127.47 733.14C127.47 733.7 127.93 734.08 128.87 734.08C129.79 734.08 130.61 733.84 131.31 733.34V731.8H130.65C128.53 731.8 127.47 732.24 127.47 733.14ZM141.063 736.16C139.543 736.16 138.303 735.66 137.323 734.66C136.363 733.64 135.883 732.34 135.883 730.74C135.883 729.14 136.363 727.84 137.323 726.84C138.303 725.84 139.543 725.34 141.063 725.34C142.223 725.34 143.483 725.68 144.863 726.34L143.963 728.42C142.863 727.96 141.963 727.72 141.243 727.72C139.623 727.72 138.603 728.96 138.603 730.74C138.603 732.56 139.623 733.78 141.243 733.78C142.023 733.78 142.943 733.6 143.963 733.24L144.863 735.32C143.483 735.88 142.203 736.16 141.063 736.16ZM148.116 724.38C147.096 724.38 146.396 723.68 146.396 722.64C146.396 721.6 147.096 720.9 148.116 720.9C149.096 720.9 149.836 721.6 149.836 722.64C149.836 723.68 149.096 724.38 148.116 724.38ZM149.496 736H146.716V725.5H149.496V736ZM160.431 734.66C159.451 735.66 158.191 736.16 156.631 736.16C155.071 736.16 153.811 735.66 152.831 734.66C151.851 733.64 151.371 732.34 151.371 730.74C151.371 729.14 151.851 727.84 152.831 726.84C153.811 725.84 155.071 725.34 156.631 725.34C158.191 725.34 159.451 725.84 160.431 726.84C161.411 727.84 161.911 729.14 161.911 730.74C161.911 732.34 161.411 733.64 160.431 734.66ZM156.631 733.78C157.431 733.78 158.051 733.5 158.511 732.94C158.971 732.38 159.191 731.64 159.191 730.74C159.191 729.84 158.951 729.1 158.491 728.54C158.031 727.98 157.411 727.7 156.631 727.7C155.051 727.7 154.091 728.92 154.091 730.74C154.091 732.58 155.051 733.78 156.631 733.78ZM170.466 725.34C172.626 725.34 173.706 726.26 173.706 728.5V736H170.906V729.44C170.906 728.38 170.506 727.86 169.326 727.86C168.546 727.86 167.626 728.1 166.586 728.58V736H163.786V725.5H166.306L166.466 726.52C167.926 725.74 169.266 725.34 170.466 725.34ZM185.633 731.1V731.94H178.333C178.693 733.3 179.593 733.98 181.053 733.98C182.033 733.98 183.093 733.72 184.273 733.22L185.153 735.16C183.753 735.82 182.293 736.16 180.773 736.16C179.193 736.16 177.933 735.66 176.953 734.66C175.973 733.64 175.493 732.34 175.493 730.74C175.493 729.14 175.973 727.84 176.953 726.84C177.933 725.84 179.213 725.34 180.753 725.34C182.353 725.34 183.573 725.88 184.393 726.96C185.213 728.02 185.633 729.4 185.633 731.1ZM180.753 727.5C179.373 727.5 178.473 728.5 178.253 730.02H183.073C182.893 728.34 182.133 727.5 180.753 727.5ZM196.268 736.16C194.608 736.16 193.028 735.74 191.528 734.92L192.448 732.86C193.908 733.56 195.228 733.92 196.408 733.92C197.348 733.92 197.788 733.56 197.788 733.1C197.788 732.84 197.648 732.62 197.388 732.44C197.128 732.26 196.568 732.04 195.708 731.8C194.528 731.48 193.808 731.2 193.008 730.7C192.208 730.16 191.788 729.38 191.788 728.4C191.788 727.58 192.148 726.88 192.848 726.26C193.548 725.64 194.568 725.34 195.868 725.34C197.228 725.34 198.748 725.7 200.428 726.42L199.508 728.48C197.948 727.88 196.708 727.58 195.788 727.58C194.928 727.58 194.488 727.92 194.488 728.38C194.488 728.86 194.868 729.14 196.448 729.6C197.788 730 198.448 730.24 199.268 730.78C200.128 731.28 200.488 732.04 200.488 733.06C200.488 733.88 200.108 734.62 199.368 735.24C198.628 735.86 197.588 736.16 196.268 736.16ZM212.019 731.1V731.94H204.719C205.079 733.3 205.979 733.98 207.439 733.98C208.419 733.98 209.479 733.72 210.659 733.22L211.539 735.16C210.139 735.82 208.679 736.16 207.159 736.16C205.579 736.16 204.319 735.66 203.339 734.66C202.359 733.64 201.879 732.34 201.879 730.74C201.879 729.14 202.359 727.84 203.339 726.84C204.319 725.84 205.599 725.34 207.139 725.34C208.739 725.34 209.959 725.88 210.779 726.96C211.599 728.02 212.019 729.4 212.019 731.1ZM207.139 727.5C205.759 727.5 204.859 728.5 204.639 730.02H209.459C209.279 728.34 208.519 727.5 207.139 727.5ZM227.343 725.34C229.363 725.34 230.383 726.4 230.383 728.5V736H227.603V729.44C227.603 728.38 227.203 727.86 226.103 727.86C225.423 727.86 224.563 728.08 223.543 728.54V736H220.763V729.44C220.763 728.38 220.383 727.86 219.283 727.86C218.583 727.86 217.743 728.08 216.723 728.54V736H213.923V725.5H216.443L216.583 726.48C218.043 725.72 219.363 725.34 220.523 725.34C221.783 725.34 222.663 725.76 223.143 726.62C224.723 725.76 226.123 725.34 227.343 725.34ZM246.843 731.1V731.94H239.543C239.903 733.3 240.803 733.98 242.263 733.98C243.243 733.98 244.303 733.72 245.483 733.22L246.363 735.16C244.963 735.82 243.503 736.16 241.983 736.16C240.403 736.16 239.143 735.66 238.163 734.66C237.183 733.64 236.703 732.34 236.703 730.74C236.703 729.14 237.183 727.84 238.163 726.84C239.143 725.84 240.423 725.34 241.963 725.34C243.563 725.34 244.783 725.88 245.603 726.96C246.423 728.02 246.843 729.4 246.843 731.1ZM241.963 727.5C240.583 727.5 239.683 728.5 239.463 730.02H244.283C244.103 728.34 243.343 727.5 241.963 727.5ZM252.947 736.16C251.287 736.16 249.707 735.74 248.207 734.92L249.127 732.86C250.587 733.56 251.907 733.92 253.087 733.92C254.027 733.92 254.467 733.56 254.467 733.1C254.467 732.84 254.327 732.62 254.067 732.44C253.807 732.26 253.247 732.04 252.387 731.8C251.207 731.48 250.487 731.2 249.687 730.7C248.887 730.16 248.467 729.38 248.467 728.4C248.467 727.58 248.827 726.88 249.527 726.26C250.227 725.64 251.247 725.34 252.547 725.34C253.907 725.34 255.427 725.7 257.107 726.42L256.187 728.48C254.627 727.88 253.387 727.58 252.467 727.58C251.607 727.58 251.167 727.92 251.167 728.38C251.167 728.86 251.547 729.14 253.127 729.6C254.467 730 255.127 730.24 255.947 730.78C256.807 731.28 257.167 732.04 257.167 733.06C257.167 733.88 256.787 734.62 256.047 735.24C255.307 735.86 254.267 736.16 252.947 736.16ZM265.039 733.56L265.259 735.94C264.619 736.08 263.859 736.16 262.959 736.16C261.739 736.16 260.819 735.7 260.419 735.04C260.019 734.34 259.859 733.74 259.859 733.08V727.94H258.439V725.5H259.859V723.34H262.639V725.5H265.239V727.94H262.639V732.68C262.639 733.34 262.959 733.68 263.599 733.68C264.079 733.68 264.559 733.64 265.039 733.56ZM273.942 725.38V728.08C272.482 728.08 271.222 728.32 270.122 728.78V736H267.322V725.5H269.842L269.982 726.48C271.362 725.74 272.682 725.38 273.942 725.38ZM284.929 731.1V731.94H277.629C277.989 733.3 278.889 733.98 280.349 733.98C281.329 733.98 282.389 733.72 283.569 733.22L284.449 735.16C283.049 735.82 281.589 736.16 280.069 736.16C278.489 736.16 277.229 735.66 276.249 734.66C275.269 733.64 274.789 732.34 274.789 730.74C274.789 729.14 275.269 727.84 276.249 726.84C277.229 725.84 278.509 725.34 280.049 725.34C281.649 725.34 282.869 725.88 283.689 726.96C284.509 728.02 284.929 729.4 284.929 731.1ZM280.049 727.5C278.669 727.5 277.769 728.5 277.549 730.02H282.369C282.189 728.34 281.429 727.5 280.049 727.5ZM291.033 736.16C289.373 736.16 287.793 735.74 286.293 734.92L287.213 732.86C288.673 733.56 289.993 733.92 291.173 733.92C292.113 733.92 292.553 733.56 292.553 733.1C292.553 732.84 292.413 732.62 292.153 732.44C291.893 732.26 291.333 732.04 290.473 731.8C289.293 731.48 288.573 731.2 287.773 730.7C286.973 730.16 286.553 729.38 286.553 728.4C286.553 727.58 286.913 726.88 287.613 726.26C288.313 725.64 289.333 725.34 290.633 725.34C291.993 725.34 293.513 725.7 295.193 726.42L294.273 728.48C292.713 727.88 291.473 727.58 290.553 727.58C289.693 727.58 289.253 727.92 289.253 728.38C289.253 728.86 289.633 729.14 291.213 729.6C292.553 730 293.213 730.24 294.033 730.78C294.893 731.28 295.253 732.04 295.253 733.06C295.253 733.88 294.873 734.62 294.133 735.24C293.393 735.86 292.353 736.16 291.033 736.16ZM301.385 736.16C299.725 736.16 298.145 735.74 296.645 734.92L297.565 732.86C299.025 733.56 300.345 733.92 301.525 733.92C302.465 733.92 302.905 733.56 302.905 733.1C302.905 732.84 302.765 732.62 302.505 732.44C302.245 732.26 301.685 732.04 300.825 731.8C299.645 731.48 298.925 731.2 298.125 730.7C297.325 730.16 296.905 729.38 296.905 728.4C296.905 727.58 297.265 726.88 297.965 726.26C298.665 725.64 299.685 725.34 300.985 725.34C302.345 725.34 303.865 725.7 305.545 726.42L304.625 728.48C303.065 727.88 301.825 727.58 300.905 727.58C300.045 727.58 299.605 727.92 299.605 728.38C299.605 728.86 299.985 729.14 301.565 729.6C302.905 730 303.565 730.24 304.385 730.78C305.245 731.28 305.605 732.04 305.605 733.06C305.605 733.88 305.225 734.62 304.485 735.24C303.745 735.86 302.705 736.16 301.385 736.16ZM317.136 731.1V731.94H309.836C310.196 733.3 311.096 733.98 312.556 733.98C313.536 733.98 314.596 733.72 315.776 733.22L316.656 735.16C315.256 735.82 313.796 736.16 312.276 736.16C310.696 736.16 309.436 735.66 308.456 734.66C307.476 733.64 306.996 732.34 306.996 730.74C306.996 729.14 307.476 727.84 308.456 726.84C309.436 725.84 310.716 725.34 312.256 725.34C313.856 725.34 315.076 725.88 315.896 726.96C316.716 728.02 317.136 729.4 317.136 731.1ZM312.256 727.5C310.876 727.5 309.976 728.5 309.756 730.02H314.576C314.396 728.34 313.636 727.5 312.256 727.5ZM326.712 728.42C326.392 728.74 325.972 728.9 325.452 728.9C324.932 728.9 324.512 728.74 324.192 728.44C323.872 728.12 323.712 727.7 323.712 727.16C323.712 726.62 323.872 726.2 324.192 725.9C324.512 725.58 324.932 725.42 325.452 725.42C325.972 725.42 326.392 725.58 326.712 725.9C327.032 726.22 327.192 726.64 327.192 727.16C327.192 727.68 327.032 728.1 326.712 728.42ZM325.252 739.26H322.792L324.072 734.1H326.932L325.252 739.26ZM328.797 739.28V736.7C330.197 736.38 330.897 735.48 330.897 733.98V725.62C330.897 724.12 330.197 723.22 328.797 722.92V720.34C331.997 720.66 333.737 722.7 333.737 725.96V733.64C333.737 736.92 331.997 738.96 328.797 739.28Z" fill="#FEFEFE"/>
<mask id="mask1_3118_319" style="mask-type:luminance" maskUnits="userSpaceOnUse" x="27" y="25" width="375" height="47">
<path d="M402 25H27V72H402V25Z" fill="white"/>
</mask>
<g mask="url(#mask1_3118_319)">
<path d="M137.769 23H292.185V38C292.185 47.3888 284.573 55 275.185 55H154.769C145.38 55 137.769 47.3888 137.769 38V23Z" fill="black"/>
<path d="M138 23H133C135.651 23 137.799 25.1487 137.799 27.7993C137.799 27.8666 137.798 27.9334 137.795 28H138V23Z" fill="black"/>
<path d="M292 23H297C294.349 23 292.201 25.1487 292.201 27.7993C292.201 27.8666 292.202 27.9334 292.205 28H292V23Z" fill="black"/>
<path d="M61.8789 44.7231C64.4355 44.7231 66.6602 46.541 66.6602 50.8574V50.874C66.6602 54.9082 64.8423 57.2988 61.8291 57.2988C59.6294 57.2988 57.9858 55.9956 57.604 54.1611L57.5874 54.0698H59.6958L59.7207 54.1528C60.0361 54.9912 60.7749 55.5391 61.8291 55.5391C63.73 55.5391 64.5352 53.6797 64.6265 51.3887C64.6265 51.2974 64.6348 51.2061 64.6348 51.1147H64.4687C64.0288 52.061 62.9829 52.8994 61.3394 52.8994C59.04 52.8994 57.4297 51.2227 57.4297 48.9482V48.9316C57.4297 46.4995 59.2808 44.7231 61.8789 44.7231ZM61.8706 51.2559C63.2236 51.2559 64.2612 50.2764 64.2612 48.9233V48.9067C64.2612 47.5371 63.2236 46.4663 61.8955 46.4663C60.5757 46.4663 59.5215 47.5205 59.5215 48.8569V48.8735C59.5215 50.2598 60.5093 51.2559 61.8706 51.2559ZM70.0207 49.2388C69.2653 49.2388 68.7009 48.6577 68.7009 47.9272C68.7009 47.1885 69.2653 46.6157 70.0207 46.6157C70.7844 46.6157 71.3405 47.1885 71.3405 47.9272C71.3405 48.6577 70.7844 49.2388 70.0207 49.2388ZM70.0207 55.3979C69.2653 55.3979 68.7009 54.8252 68.7009 54.0864C68.7009 53.3477 69.2653 52.7749 70.0207 52.7749C70.7844 52.7749 71.3405 53.3477 71.3405 54.0864C71.3405 54.8252 70.7844 55.3979 70.0207 55.3979ZM79.1918 57V54.7007H73.3315V52.9492C74.8837 50.2515 76.5854 47.4956 78.2123 45.022H81.2421V52.9326H82.8525V54.7007H81.2421V57H79.1918ZM75.3236 52.9824H79.225V46.7319H79.1005C77.872 48.6079 76.4858 50.8242 75.3236 52.8579V52.9824ZM87.4083 57V47.1304H87.2672L84.2872 49.2388V47.2217L87.4166 45.022H89.5499V57H87.4083Z" fill="white"/>
<path opacity="0.35" d="M356.528 47.9998C356.528 46.082 358.082 44.5273 360 44.5273H377C378.918 44.5273 380.472 46.082 380.472 47.9998V52.9998C380.472 54.9176 378.918 56.4723 377 56.4723H360C358.082 56.4723 356.528 54.9176 356.528 52.9998V47.9998Z" stroke="white" stroke-width="1.05509"/>
<path opacity="0.4" d="M382 49V53.2203C382.849 52.8629 383.401 52.0314 383.401 51.1102C383.401 50.1889 382.849 49.3574 382 49Z" fill="white"/>
<path d="M358 48C358 46.8954 358.895 46 360 46H377C378.105 46 379 46.8954 379 48V53C379 54.1046 378.105 55 377 55H360C358.895 55 358 54.1046 358 53V48Z" fill="white"/>
<path fill-rule="evenodd" clip-rule="evenodd" d="M340.5 47.5875C342.967 47.5876 345.339 48.5551 347.127 50.2898C347.261 50.4237 347.477 50.4221 347.609 50.286L348.896 48.9605C348.963 48.8915 349.001 48.798 349 48.7008C348.999 48.6035 348.961 48.5105 348.893 48.4423C344.201 43.8526 336.799 43.8526 332.107 48.4423C332.039 48.5105 332.001 48.6034 332 48.7007C331.999 48.7979 332.037 48.8914 332.104 48.9605L333.391 50.286C333.523 50.4223 333.739 50.424 333.873 50.2898C335.661 48.5549 338.034 47.5875 340.5 47.5875ZM340.536 51.6724C341.891 51.6723 343.198 52.1864 344.203 53.115C344.338 53.2467 344.552 53.2439 344.685 53.1085L345.97 51.7829C346.038 51.7134 346.075 51.6191 346.074 51.5211C346.073 51.4231 346.034 51.3295 345.965 51.2614C342.906 48.3568 338.169 48.3568 335.109 51.2614C335.04 51.3295 335.001 51.4231 335 51.5212C334.999 51.6192 335.037 51.7135 335.105 51.7829L336.39 53.1085C336.522 53.2439 336.736 53.2467 336.872 53.115C337.876 52.1871 339.182 51.6729 340.536 51.6724ZM343.15 54.3427C343.152 54.441 343.114 54.5357 343.045 54.6046L340.822 56.8948C340.756 56.9621 340.668 57 340.575 57C340.482 57 340.393 56.9621 340.328 56.8948L338.105 54.6046C338.036 54.5357 337.998 54.4409 338 54.3426C338.002 54.2443 338.044 54.1512 338.115 54.0853C339.535 52.8595 341.615 52.8595 343.035 54.0853C343.106 54.1513 343.148 54.2444 343.15 54.3427Z" fill="white"/>
<path d="M316 48C316 47.4477 316.448 47 317 47H318C318.552 47 319 47.4477 319 48V56C319 56.5523 318.552 57 318 57H317C316.448 57 316 56.5523 316 56V48Z" fill="white"/>
<path d="M321 46C321 45.4477 321.448 45 322 45H323C323.552 45 324 45.4477 324 46V56C324 56.5523 323.552 57 323 57H322C321.448 57 321 56.5523 321 56V46Z" fill="white"/>
<path d="M311 51.5C311 50.9477 311.448 50.5 312 50.5H313C313.552 50.5 314 50.9477 314 51.5V56C314 56.5523 313.552 57 313 57H312C311.448 57 311 56.5523 311 56V51.5Z" fill="white"/>
<path d="M306 54C306 53.4477 306.448 53 307 53H308C308.552 53 309 53.4477 309 54V56C309 56.5523 308.552 57 308 57H307C306.448 57 306 56.5523 306 56V54Z" fill="white"/>
</g>
<path d="M279.5 824H150.5C149.119 824 148 825.119 148 826.5C148 827.881 149.119 829 150.5 829H279.5C280.881 829 282 827.881 282 826.5C282 825.119 280.881 824 279.5 824Z" fill="white"/>
</g>
</g>
</g>
<defs>
<filter id="filter0_dd_3118_319" x="0" y="0" width="429" height="866" filterUnits="userSpaceOnUse" color-interpolation-filters="sRGB">
<feFlood flood-opacity="0" result="BackgroundImageFix"/>
<feColorMatrix in="SourceAlpha" type="matrix" values="0 0 0 0 0 0 0 0 0 0 0 0 0 0 0 0 0 0 127 0" result="hardAlpha"/>
<feOffset/>
<feGaussianBlur stdDeviation="1"/>
<feColorMatrix type="matrix" values="0 0 0 0 0 0 0 0 0 0.0823529 0 0 0 0 0.25098 0 0 0 0.14 0"/>
<feBlend mode="normal" in2="BackgroundImageFix" result="effect1_dropShadow_3118_319"/>
<feColorMatrix in="SourceAlpha" type="matrix" values="0 0 0 0 0 0 0 0 0 0 0 0 0 0 0 0 0 0 127 0" result="hardAlpha"/>
<feOffset dy="2"/>
<feGaussianBlur stdDeviation="2"/>
<feColorMatrix type="matrix" values="0 0 0 0 0 0 0 0 0 0.0823529 0 0 0 0 0.25098 0 0 0 0.05 0"/>
<feBlend mode="normal" in2="effect1_dropShadow_3118_319" result="effect2_dropShadow_3118_319"/>
<feBlend mode="normal" in="SourceGraphic" in2="effect2_dropShadow_3118_319" result="shape"/>
</filter>
<clipPath id="clip0_3118_319">
<rect width="375" height="812" fill="white" transform="translate(27 25)"/>
</clipPath>
<clipPath id="clip1_3118_319">
<rect width="375" height="812" fill="white" transform="translate(27 25)"/>
</clipPath>
</defs>
</svg>
