<svg width="136" height="82" viewBox="0 0 136 82" fill="none" xmlns="http://www.w3.org/2000/svg">
<path d="M32.0902 21.3786H57.741V23.4156H34.4415V38.7454H56.3518V40.7821H34.4415V57.6128H58.0083V59.6495H32.0902V21.3786ZM60.0392 21.3786H62.7645L74.8417 38.2093L87.1861 21.3784L103.977 0L76.3914 39.9783L90.6063 59.6495H87.7739L74.8417 41.747L61.8558 59.6495H59.0771L73.3988 39.978L60.039 21.3786H60.0392ZM91.6215 23.4156V21.3784H120.853V23.4154H107.386V59.6493H105.035V23.4156H91.6215ZM0 21.3784H2.93914L43.4682 81.9689L26.7198 59.6493L2.45809 24.2731L2.35131 59.6498H0V21.3784ZM120.616 56.9977C120.136 56.9977 119.775 56.6262 119.775 56.1453C119.775 55.665 120.136 55.2929 120.616 55.2929C121.102 55.2929 121.457 55.6647 121.457 56.1453C121.457 56.6259 121.102 56.9977 120.616 56.9977ZM122.926 54.7553H124.185C124.202 55.436 124.699 55.8937 125.431 55.8937C126.249 55.8937 126.712 55.4017 126.712 54.4806V48.6451H127.994V54.4862C127.994 56.1453 127.033 57.1009 125.443 57.1009C123.95 57.1009 122.926 56.174 122.926 54.755V54.7553ZM129.669 54.681H130.939C131.047 55.4646 131.814 55.9622 132.918 55.9622C133.947 55.9622 134.702 55.4301 134.702 54.698C134.702 54.0688 134.221 53.6912 133.129 53.4337L132.065 53.1763C130.572 52.8271 129.892 52.1063 129.892 50.8936C129.892 49.4234 131.093 48.445 132.895 48.445C134.57 48.445 135.794 49.4232 135.869 50.8135H134.622C134.502 50.0526 133.838 49.5776 132.877 49.5776C131.865 49.5776 131.191 50.064 131.191 50.8076C131.191 51.3967 131.625 51.7346 132.7 51.9861L133.609 52.2093C135.302 52.6042 136 53.2907 136 54.5321C136 56.1111 134.776 57.1009 132.82 57.1009C130.99 57.1009 129.76 56.1567 129.669 54.6807V54.681Z" fill="black"/>
</svg>
