<svg width="335" height="64" viewBox="0 0 335 64" fill="none" xmlns="http://www.w3.org/2000/svg">
<rect width="335" height="64" rx="8" fill="#6E1DBE"/>
<path d="M115.6 38.144C114.864 38.144 114.192 38.0267 113.584 37.792C112.987 37.5573 112.475 37.2107 112.048 36.752C111.632 36.2933 111.307 35.7387 111.072 35.088C110.837 34.4267 110.72 33.6693 110.72 32.816V31.984C110.72 31.1413 110.837 30.3947 111.072 29.744C111.307 29.0827 111.637 28.5227 112.064 28.064C112.491 27.6053 113.003 27.2587 113.6 27.024C114.208 26.7787 114.875 26.656 115.6 26.656C116.251 26.656 116.837 26.752 117.36 26.944C117.893 27.136 118.352 27.3973 118.736 27.728C119.12 28.048 119.429 28.4267 119.664 28.864C119.909 29.2907 120.075 29.7493 120.16 30.24H118.048C117.963 29.9947 117.851 29.7653 117.712 29.552C117.573 29.328 117.403 29.136 117.2 28.976C116.997 28.816 116.763 28.688 116.496 28.592C116.229 28.496 115.931 28.448 115.6 28.448C114.747 28.448 114.053 28.7413 113.52 29.328C112.997 29.9147 112.736 30.8 112.736 31.984V32.816C112.736 33.4027 112.805 33.92 112.944 34.368C113.093 34.8053 113.291 35.1733 113.536 35.472C113.792 35.76 114.096 35.9787 114.448 36.128C114.8 36.2773 115.184 36.352 115.6 36.352C116.251 36.352 116.784 36.16 117.2 35.776C117.616 35.392 117.899 34.88 118.048 34.24H120.16C120.075 34.8053 119.909 35.328 119.664 35.808C119.429 36.2773 119.115 36.688 118.72 37.04C118.336 37.3813 117.883 37.6533 117.36 37.856C116.837 38.048 116.251 38.144 115.6 38.144ZM121.759 30H123.215L123.359 30.896C123.636 30.5547 123.977 30.2987 124.383 30.128C124.799 29.9467 125.257 29.856 125.759 29.856H126.559V31.584H125.759C125.023 31.584 124.479 31.744 124.127 32.064C123.785 32.384 123.615 32.816 123.615 33.36V38H121.759V30ZM127.917 30H129.773V38H127.917V30ZM128.845 29.04C128.504 29.04 128.216 28.928 127.981 28.704C127.757 28.4693 127.645 28.1813 127.645 27.84C127.645 27.4987 127.757 27.216 127.981 26.992C128.216 26.7573 128.504 26.64 128.845 26.64C129.176 26.64 129.458 26.7573 129.693 26.992C129.928 27.216 130.045 27.4987 130.045 27.84C130.045 28.1813 129.928 28.4693 129.693 28.704C129.458 28.928 129.176 29.04 128.845 29.04ZM134.011 38.144C133.147 38.144 132.491 37.9307 132.043 37.504C131.595 37.0773 131.371 36.4853 131.371 35.728C131.371 35.312 131.435 34.9387 131.563 34.608C131.701 34.2667 131.915 33.984 132.203 33.76C132.501 33.5253 132.88 33.3493 133.339 33.232C133.808 33.104 134.379 33.04 135.051 33.04H136.395V32.56C136.395 32.176 136.288 31.888 136.075 31.696C135.872 31.4933 135.531 31.392 135.051 31.392C134.603 31.392 134.277 31.4773 134.075 31.648C133.872 31.8187 133.749 32.0427 133.707 32.32H131.691C131.733 31.6053 132.021 31.0187 132.555 30.56C133.099 30.0907 133.931 29.856 135.051 29.856C136.117 29.856 136.917 30.1013 137.451 30.592C137.984 31.0827 138.251 31.7387 138.251 32.56V38H136.795L136.603 36.896C136.325 37.3013 135.963 37.6107 135.515 37.824C135.077 38.0373 134.576 38.144 134.011 38.144ZM134.331 36.608C134.629 36.608 134.901 36.56 135.147 36.464C135.403 36.3573 135.621 36.2187 135.803 36.048C135.984 35.8667 136.128 35.664 136.235 35.44C136.341 35.216 136.395 34.976 136.395 34.72V34.48H135.051C134.411 34.48 133.963 34.5867 133.707 34.8C133.451 35.0133 133.323 35.3013 133.323 35.664C133.323 35.952 133.408 36.1813 133.579 36.352C133.76 36.5227 134.011 36.608 134.331 36.608ZM140.243 30H141.699L141.843 30.896C142.12 30.5547 142.462 30.2987 142.867 30.128C143.283 29.9467 143.742 29.856 144.243 29.856H145.043V31.584H144.243C143.507 31.584 142.963 31.744 142.611 32.064C142.27 32.384 142.099 32.816 142.099 33.36V38H140.243V30ZM153.281 38.144C152.343 38.144 151.601 37.856 151.057 37.28C150.513 36.6933 150.241 35.8133 150.241 34.64V30H152.097V34.64C152.097 35.2267 152.236 35.6693 152.513 35.968C152.791 36.2667 153.153 36.416 153.601 36.416C154.145 36.416 154.577 36.2613 154.897 35.952C155.228 35.6427 155.404 35.232 155.425 34.72V30H157.281V38H155.825L155.681 37.12C155.393 37.4507 155.047 37.7067 154.641 37.888C154.236 38.0587 153.783 38.144 153.281 38.144ZM159.368 30H160.824L160.968 30.88C161.245 30.5493 161.581 30.2987 161.976 30.128C162.381 29.9467 162.824 29.856 163.304 29.856C163.848 29.856 164.328 29.968 164.744 30.192C165.171 30.4053 165.512 30.7253 165.768 31.152C166.045 30.736 166.408 30.416 166.856 30.192C167.304 29.968 167.811 29.856 168.376 29.856C169.283 29.856 170.008 30.1493 170.552 30.736C171.096 31.3227 171.368 32.1973 171.368 33.36V38H169.512V33.36C169.512 32.7627 169.373 32.32 169.096 32.032C168.829 31.7333 168.456 31.584 167.976 31.584C167.496 31.584 167.096 31.7493 166.776 32.08C166.456 32.4 166.296 32.8267 166.296 33.36V38H164.44V33.36C164.44 32.7733 164.301 32.3307 164.024 32.032C163.747 31.7333 163.373 31.584 162.904 31.584C162.424 31.584 162.029 31.7387 161.72 32.048C161.411 32.3573 161.245 32.768 161.224 33.28V38H159.368V30ZM175.448 38.144C174.584 38.144 173.928 37.9307 173.48 37.504C173.032 37.0773 172.808 36.4853 172.808 35.728C172.808 35.312 172.872 34.9387 173 34.608C173.139 34.2667 173.352 33.984 173.64 33.76C173.939 33.5253 174.317 33.3493 174.776 33.232C175.245 33.104 175.816 33.04 176.488 33.04H177.832V32.56C177.832 32.176 177.725 31.888 177.512 31.696C177.309 31.4933 176.968 31.392 176.488 31.392C176.04 31.392 175.715 31.4773 175.512 31.648C175.309 31.8187 175.187 32.0427 175.144 32.32H173.128C173.171 31.6053 173.459 31.0187 173.992 30.56C174.536 30.0907 175.368 29.856 176.488 29.856C177.555 29.856 178.355 30.1013 178.888 30.592C179.421 31.0827 179.688 31.7387 179.688 32.56V38H178.232L178.04 36.896C177.763 37.3013 177.4 37.6107 176.952 37.824C176.515 38.0373 176.013 38.144 175.448 38.144ZM175.768 36.608C176.067 36.608 176.339 36.56 176.584 36.464C176.84 36.3573 177.059 36.2187 177.24 36.048C177.421 35.8667 177.565 35.664 177.672 35.44C177.779 35.216 177.832 34.976 177.832 34.72V34.48H176.488C175.848 34.48 175.4 34.5867 175.144 34.8C174.888 35.0133 174.76 35.3013 174.76 35.664C174.76 35.952 174.845 36.1813 175.016 36.352C175.197 36.5227 175.448 36.608 175.768 36.608ZM188.961 38.144C188.385 38.144 187.862 38.0587 187.393 37.888C186.934 37.7067 186.539 37.4507 186.209 37.12C185.889 36.7787 185.638 36.368 185.457 35.888C185.286 35.408 185.201 34.864 185.201 34.256V33.744C185.201 33.1467 185.286 32.608 185.457 32.128C185.638 31.648 185.894 31.2427 186.225 30.912C186.555 30.5707 186.95 30.3093 187.409 30.128C187.878 29.9467 188.395 29.856 188.961 29.856C189.974 29.856 190.758 30.1067 191.313 30.608C191.878 31.1093 192.241 31.76 192.401 32.56H190.417C190.331 32.272 190.155 32.0373 189.889 31.856C189.622 31.6747 189.286 31.584 188.881 31.584C188.646 31.584 188.422 31.6267 188.209 31.712C188.006 31.7867 187.825 31.9147 187.665 32.096C187.505 32.2667 187.377 32.4907 187.281 32.768C187.195 33.0347 187.153 33.36 187.153 33.744V34.256C187.153 34.6293 187.201 34.9547 187.297 35.232C187.393 35.4987 187.521 35.7227 187.681 35.904C187.841 36.0747 188.022 36.2027 188.225 36.288C188.438 36.3733 188.657 36.416 188.881 36.416C189.339 36.416 189.686 36.3147 189.921 36.112C190.166 35.9093 190.331 35.6587 190.417 35.36H192.401C192.241 36.2027 191.878 36.88 191.313 37.392C190.758 37.8933 189.974 38.144 188.961 38.144ZM197.119 38.144C195.913 38.144 194.969 37.8027 194.287 37.12C193.615 36.4373 193.279 35.4827 193.279 34.256V33.744C193.279 33.136 193.364 32.592 193.535 32.112C193.716 31.632 193.972 31.2267 194.303 30.896C194.644 30.5547 195.049 30.2987 195.519 30.128C195.988 29.9467 196.521 29.856 197.119 29.856C198.324 29.856 199.263 30.1973 199.935 30.88C200.617 31.5627 200.959 32.5173 200.959 33.744V34.256C200.959 34.864 200.868 35.408 200.687 35.888C200.516 36.368 200.26 36.7787 199.919 37.12C199.588 37.4507 199.183 37.7067 198.703 37.888C198.233 38.0587 197.705 38.144 197.119 38.144ZM197.119 36.416C197.727 36.416 198.191 36.24 198.511 35.888C198.841 35.536 199.007 34.992 199.007 34.256V33.744C199.007 33.0187 198.836 32.48 198.495 32.128C198.164 31.7653 197.705 31.584 197.119 31.584C196.511 31.584 196.041 31.76 195.711 32.112C195.391 32.464 195.231 33.008 195.231 33.744V34.256C195.231 34.9813 195.396 35.5253 195.727 35.888C196.068 36.24 196.532 36.416 197.119 36.416ZM202.556 30H204.012L204.156 30.896C204.753 30.2027 205.58 29.856 206.636 29.856C207.617 29.856 208.38 30.1493 208.924 30.736C209.478 31.312 209.756 32.1867 209.756 33.36V38H207.9V33.36C207.9 32.7733 207.756 32.3307 207.468 32.032C207.19 31.7333 206.806 31.584 206.316 31.584C205.74 31.584 205.281 31.7387 204.94 32.048C204.609 32.3573 204.433 32.768 204.412 33.28V38H202.556V30ZM210.643 30H212.083V27.76H213.939V30H215.923V31.632H213.939V35.168C213.939 35.584 214.029 35.888 214.211 36.08C214.403 36.272 214.685 36.368 215.059 36.368H216.083V38H214.723C213.869 38 213.213 37.776 212.755 37.328C212.307 36.8693 212.083 36.2133 212.083 35.36V31.632H210.643V30ZM219.604 38.144C218.74 38.144 218.084 37.9307 217.636 37.504C217.188 37.0773 216.964 36.4853 216.964 35.728C216.964 35.312 217.028 34.9387 217.156 34.608C217.295 34.2667 217.508 33.984 217.796 33.76C218.095 33.5253 218.474 33.3493 218.932 33.232C219.402 33.104 219.972 33.04 220.644 33.04H221.988V32.56C221.988 32.176 221.882 31.888 221.668 31.696C221.466 31.4933 221.124 31.392 220.644 31.392C220.196 31.392 219.871 31.4773 219.668 31.648C219.466 31.8187 219.343 32.0427 219.3 32.32H217.284C217.327 31.6053 217.615 31.0187 218.148 30.56C218.692 30.0907 219.524 29.856 220.644 29.856C221.711 29.856 222.511 30.1013 223.044 30.592C223.578 31.0827 223.844 31.7387 223.844 32.56V38H222.388L222.196 36.896C221.919 37.3013 221.556 37.6107 221.108 37.824C220.671 38.0373 220.17 38.144 219.604 38.144ZM219.924 36.608C220.223 36.608 220.495 36.56 220.74 36.464C220.996 36.3573 221.215 36.2187 221.396 36.048C221.578 35.8667 221.722 35.664 221.828 35.44C221.935 35.216 221.988 34.976 221.988 34.72V34.48H220.644C220.004 34.48 219.556 34.5867 219.3 34.8C219.044 35.0133 218.916 35.3013 218.916 35.664C218.916 35.952 219.002 36.1813 219.172 36.352C219.354 36.5227 219.604 36.608 219.924 36.608Z" fill="white"/>
</svg>
