<svg width="335" height="64" viewBox="0 0 335 64" fill="none" xmlns="http://www.w3.org/2000/svg">
<rect x="0.5" y="0.5" width="334" height="63" rx="7.5" fill="white"/>
<path d="M146.12 26.8H153.32V28.496H148.04V31.392H152.36V33.088H148.04V36.304H153.32V38H146.12V26.8ZM154.993 30H156.449L156.593 30.896C157.19 30.2027 158.017 29.856 159.073 29.856C160.054 29.856 160.817 30.1493 161.361 30.736C161.916 31.312 162.193 32.1867 162.193 33.36V38H160.337V33.36C160.337 32.7733 160.193 32.3307 159.905 32.032C159.628 31.7333 159.244 31.584 158.753 31.584C158.177 31.584 157.718 31.7387 157.377 32.048C157.046 32.3573 156.87 32.768 156.849 33.28V38H154.993V30ZM163.08 30H164.52V27.76H166.376V30H168.36V31.632H166.376V35.168C166.376 35.584 166.467 35.888 166.648 36.08C166.84 36.272 167.123 36.368 167.496 36.368H168.52V38H167.16C166.307 38 165.651 37.776 165.192 37.328C164.744 36.8693 164.52 36.2133 164.52 35.36V31.632H163.08V30ZM169.806 30H171.262L171.406 30.896C171.683 30.5547 172.024 30.2987 172.43 30.128C172.846 29.9467 173.304 29.856 173.806 29.856H174.606V31.584H173.806C173.07 31.584 172.526 31.744 172.174 32.064C171.832 32.384 171.662 32.816 171.662 33.36V38H169.806V30ZM177.964 38.144C177.1 38.144 176.444 37.9307 175.996 37.504C175.548 37.0773 175.324 36.4853 175.324 35.728C175.324 35.312 175.388 34.9387 175.516 34.608C175.654 34.2667 175.868 33.984 176.156 33.76C176.454 33.5253 176.833 33.3493 177.292 33.232C177.761 33.104 178.332 33.04 179.004 33.04H180.348V32.56C180.348 32.176 180.241 31.888 180.028 31.696C179.825 31.4933 179.484 31.392 179.004 31.392C178.556 31.392 178.23 31.4773 178.028 31.648C177.825 31.8187 177.702 32.0427 177.66 32.32H175.644C175.686 31.6053 175.974 31.0187 176.508 30.56C177.052 30.0907 177.884 29.856 179.004 29.856C180.07 29.856 180.87 30.1013 181.404 30.592C181.937 31.0827 182.204 31.7387 182.204 32.56V38H180.748L180.556 36.896C180.278 37.3013 179.916 37.6107 179.468 37.824C179.03 38.0373 178.529 38.144 177.964 38.144ZM178.284 36.608C178.582 36.608 178.854 36.56 179.1 36.464C179.356 36.3573 179.574 36.2187 179.756 36.048C179.937 35.8667 180.081 35.664 180.188 35.44C180.294 35.216 180.348 34.976 180.348 34.72V34.48H179.004C178.364 34.48 177.916 34.5867 177.66 34.8C177.404 35.0133 177.276 35.3013 177.276 35.664C177.276 35.952 177.361 36.1813 177.532 36.352C177.713 36.5227 177.964 36.608 178.284 36.608ZM184.196 30H185.652L185.796 30.896C186.074 30.5547 186.415 30.2987 186.82 30.128C187.236 29.9467 187.695 29.856 188.196 29.856H188.996V31.584H188.196C187.46 31.584 186.916 31.744 186.564 32.064C186.223 32.384 186.052 32.816 186.052 33.36V38H184.196V30Z" fill="#6E1DBE"/>
<rect x="0.5" y="0.5" width="334" height="63" rx="7.5" stroke="#E1E1E4"/>
</svg>
