<svg width="116" height="117" viewBox="0 0 116 117" fill="none" xmlns="http://www.w3.org/2000/svg">
<rect width="116" height="117" rx="16" fill="#121515"/>
<path d="M58.8697 22.7896C58.7466 22.6735 58.5827 22.6086 58.4123 22.6086C58.2419 22.6086 58.0781 22.6735 57.9549 22.7896L42.7275 37.1306C42.6629 37.1916 42.6114 37.2649 42.5763 37.346C42.5412 37.4272 42.5231 37.5145 42.5232 37.6027L42.5208 51.0623C42.5208 51.7543 42.7996 52.418 43.296 52.9074C43.7924 53.3967 44.4656 53.6716 45.1676 53.6716H53.1162C53.4672 53.6716 53.8038 53.5342 54.052 53.2895C54.3002 53.0448 54.4396 52.713 54.4396 52.3669V41.2771C54.4396 41.1041 54.5093 40.9381 54.6334 40.8158C54.7575 40.6935 54.9258 40.6247 55.1013 40.6247H61.7183C61.8938 40.6247 62.0621 40.6935 62.1862 40.8158C62.3103 40.9381 62.38 41.1041 62.38 41.2771V52.3669C62.38 52.713 62.5195 53.0448 62.7676 53.2895C63.0158 53.5342 63.3524 53.6716 63.7034 53.6716H71.6488C72.3508 53.6716 73.024 53.3967 73.5204 52.9074C74.0167 52.418 74.2956 51.7543 74.2956 51.0623V37.6027C74.2957 37.5145 74.2777 37.4272 74.2425 37.346C74.2074 37.2649 74.156 37.1916 74.0913 37.1306L58.8697 22.7896Z" fill="#F2A54A"/>
<path d="M77.8564 34.3505L71.6839 28.498V19.6171C71.6839 19.27 71.5448 18.9372 71.2972 18.6918C71.0496 18.4464 70.7137 18.3085 70.3636 18.3085H66.4026C66.0524 18.3085 65.7166 18.4464 65.469 18.6918C65.2214 18.9372 65.0823 19.27 65.0823 19.6171V22.2342L60.3027 17.705C59.8555 17.2568 59.1904 17 58.4716 17C57.7553 17 57.0919 17.2568 56.6446 17.7058L39.0926 34.3488C38.5793 34.8395 38.5149 35.6467 38.982 36.1783C39.0993 36.3125 39.2429 36.4216 39.4041 36.4991C39.5653 36.5765 39.7407 36.6206 39.9196 36.6287C40.0986 36.6368 40.2773 36.6088 40.445 36.5462C40.6126 36.4837 40.7657 36.388 40.8948 36.265L58.0177 20.0489C58.1406 19.9324 58.3041 19.8674 58.4741 19.8674C58.6441 19.8674 58.8076 19.9324 58.9304 20.0489L76.055 36.265C76.3072 36.5048 76.6451 36.6356 76.9946 36.6289C77.344 36.6221 77.6765 36.4783 77.9191 36.229C78.4258 35.7089 78.3837 34.8502 77.8564 34.3505Z" fill="#F2A54A"/>
<path d="M12.3391 76.77V57.27C12.3391 56.87 12.5291 56.57 12.9091 56.37C13.2891 56.17 13.7491 56.07 14.2891 56.07C14.8291 56.07 15.2891 56.17 15.6691 56.37C16.0491 56.57 16.2391 56.87 16.2391 57.27V65.1H22.9891V57.27C22.9891 56.87 23.1791 56.57 23.5591 56.37C23.9391 56.17 24.3991 56.07 24.9391 56.07C25.4791 56.07 25.9391 56.17 26.3191 56.37C26.6991 56.57 26.8891 56.87 26.8891 57.27V76.77C26.8891 77.15 26.6891 77.45 26.2891 77.67C25.9091 77.89 25.4591 78 24.9391 78C24.3991 78 23.9391 77.89 23.5591 77.67C23.1791 77.45 22.9891 77.15 22.9891 76.77V68.16H16.2391V76.77C16.2391 77.15 16.0391 77.45 15.6391 77.67C15.2591 77.89 14.8091 78 14.2891 78C13.7491 78 13.2891 77.89 12.9091 77.67C12.5291 77.45 12.3391 77.15 12.3391 76.77ZM29.5166 72.12V69.66C29.5166 68.02 30.1566 66.6 31.4366 65.4C32.7166 64.18 34.2466 63.57 36.0266 63.57C37.7666 63.57 39.2866 64.17 40.5866 65.37C41.8866 66.57 42.5366 68 42.5366 69.66V72.12C42.5366 73.74 41.8866 75.17 40.5866 76.41C39.2866 77.65 37.7666 78.27 36.0266 78.27C34.2866 78.27 32.7666 77.65 31.4666 76.41C30.1666 75.17 29.5166 73.74 29.5166 72.12ZM33.3866 72.12C33.3866 72.84 33.6466 73.48 34.1666 74.04C34.6866 74.6 35.3066 74.88 36.0266 74.88C36.7266 74.88 37.3366 74.6 37.8566 74.04C38.3966 73.48 38.6666 72.84 38.6666 72.12V69.66C38.6666 68.98 38.3966 68.36 37.8566 67.8C37.3366 67.24 36.7266 66.96 36.0266 66.96C35.3066 66.96 34.6866 67.24 34.1666 67.8C33.6466 68.34 33.3866 68.96 33.3866 69.66V72.12ZM44.998 76.77V64.95C44.998 64.59 45.168 64.3 45.508 64.08C45.868 63.86 46.328 63.75 46.888 63.75C47.388 63.75 47.798 63.86 48.118 64.08C48.458 64.3 48.628 64.59 48.628 64.95V66.18C48.948 65.48 49.448 64.87 50.128 64.35C50.808 63.83 51.538 63.57 52.318 63.57H53.248C53.608 63.57 53.928 63.74 54.208 64.08C54.508 64.42 54.658 64.81 54.658 65.25C54.658 65.71 54.508 66.11 54.208 66.45C53.928 66.79 53.608 66.96 53.248 66.96H52.318C51.398 66.96 50.588 67.37 49.888 68.19C49.208 69.01 48.868 70.08 48.868 71.4V76.77C48.868 77.07 48.668 77.35 48.268 77.61C47.868 77.87 47.408 78 46.888 78C46.348 78 45.898 77.88 45.538 77.64C45.178 77.38 44.998 77.09 44.998 76.77ZM55.4666 74.28C55.4666 72.66 56.0666 71.52 57.2666 70.86C58.4666 70.2 60.1966 69.87 62.4566 69.87H63.6866V69.48C63.6866 68.74 63.4666 68.1 63.0266 67.56C62.6066 67 61.9466 66.72 61.0466 66.72C60.1466 66.72 59.3766 66.88 58.7366 67.2C58.0966 67.5 57.7266 67.65 57.6266 67.65C57.2266 67.65 56.9066 67.45 56.6666 67.05C56.4266 66.65 56.3066 66.21 56.3066 65.73C56.3066 65.15 56.8166 64.65 57.8366 64.23C58.8766 63.79 59.9666 63.57 61.1066 63.57C63.2866 63.57 64.9066 64.13 65.9666 65.25C67.0266 66.35 67.5566 67.74 67.5566 69.42V76.77C67.5566 77.11 67.3766 77.4 67.0166 77.64C66.6566 77.88 66.2066 78 65.6666 78C65.1666 78 64.7466 77.88 64.4066 77.64C64.0866 77.4 63.9266 77.11 63.9266 76.77V75.9C62.5466 77.48 61.0266 78.27 59.3666 78.27C58.2266 78.27 57.2866 77.93 56.5466 77.25C55.8266 76.57 55.4666 75.58 55.4666 74.28ZM59.3366 73.77C59.3366 74.31 59.4766 74.72 59.7566 75C60.0566 75.26 60.4466 75.39 60.9266 75.39C61.5666 75.39 62.1866 75.09 62.7866 74.49C63.3866 73.89 63.6866 73.23 63.6866 72.51V71.88H63.2366C62.0166 71.88 61.0566 72.01 60.3566 72.27C59.6766 72.51 59.3366 73.01 59.3366 73.77ZM75.9236 72.12V69.66C75.9236 68 76.4436 66.57 77.4836 65.37C78.5436 64.17 79.8036 63.57 81.2636 63.57C82.1436 63.57 82.9136 63.79 83.5736 64.23C84.2536 64.67 84.7736 65.21 85.1336 65.85V56.64C85.1336 56.28 85.3136 55.99 85.6736 55.77C86.0536 55.55 86.5236 55.44 87.0836 55.44C87.6436 55.44 88.1036 55.55 88.4636 55.77C88.8236 55.99 89.0036 56.28 89.0036 56.64V76.77C89.0036 77.09 88.8136 77.38 88.4336 77.64C88.0736 77.88 87.6236 78 87.0836 78C86.6236 78 86.2136 77.87 85.8536 77.61C85.5136 77.35 85.3436 77.07 85.3436 76.77V75.9C85.0236 76.54 84.4736 77.1 83.6936 77.58C82.9336 78.04 82.0936 78.27 81.1736 78.27C79.7936 78.27 78.5736 77.65 77.5136 76.41C76.4536 75.17 75.9236 73.74 75.9236 72.12ZM79.7936 72.12C79.7936 72.82 80.0536 73.46 80.5736 74.04C81.0936 74.6 81.7036 74.88 82.4036 74.88C83.1036 74.88 83.7336 74.61 84.2936 74.07C84.8536 73.51 85.1336 73.04 85.1336 72.66V69.66C85.1336 68.86 84.8536 68.21 84.2936 67.71C83.7536 67.21 83.1336 66.96 82.4336 66.96C81.7136 66.96 81.0936 67.24 80.5736 67.8C80.0536 68.34 79.7936 68.96 79.7936 69.66V72.12ZM91.4795 72.12V69.66C91.4795 68.02 92.1195 66.6 93.3995 65.4C94.6795 64.18 96.2095 63.57 97.9895 63.57C99.7295 63.57 101.25 64.17 102.55 65.37C103.85 66.57 104.5 68 104.5 69.66V72.12C104.5 73.74 103.85 75.17 102.55 76.41C101.25 77.65 99.7295 78.27 97.9895 78.27C96.2495 78.27 94.7295 77.65 93.4295 76.41C92.1295 75.17 91.4795 73.74 91.4795 72.12ZM95.3495 72.12C95.3495 72.84 95.6095 73.48 96.1295 74.04C96.6495 74.6 97.2695 74.88 97.9895 74.88C98.6895 74.88 99.2995 74.6 99.8195 74.04C100.36 73.48 100.63 72.84 100.63 72.12V69.66C100.63 68.98 100.36 68.36 99.8195 67.8C99.2995 67.24 98.6895 66.96 97.9895 66.96C97.2695 66.96 96.6495 67.24 96.1295 67.8C95.6095 68.34 95.3495 68.96 95.3495 69.66V72.12Z" fill="white"/>
<path d="M10.1018 99.55C10.1018 99.09 10.2718 98.63 10.6118 98.17C10.9718 97.69 11.3718 97.45 11.8118 97.45C12.0718 97.45 12.3618 97.57 12.6818 97.81C13.0218 98.05 13.3418 98.32 13.6418 98.62C13.9618 98.9 14.4118 99.16 14.9918 99.4C15.5718 99.64 16.2118 99.76 16.9118 99.76C17.8718 99.76 18.6718 99.54 19.3118 99.1C19.9518 98.66 20.2718 98.01 20.2718 97.15C20.2718 96.55 20.0918 96.02 19.7318 95.56C19.3918 95.08 18.9318 94.69 18.3518 94.39C17.7918 94.07 17.1718 93.77 16.4918 93.49C15.8118 93.19 15.1218 92.86 14.4218 92.5C13.7418 92.14 13.1118 91.74 12.5318 91.3C11.9718 90.84 11.5118 90.24 11.1518 89.5C10.8118 88.74 10.6418 87.88 10.6418 86.92C10.6418 85.86 10.8518 84.93 11.2718 84.13C11.7118 83.31 12.2918 82.68 13.0118 82.24C13.7318 81.78 14.5018 81.45 15.3218 81.25C16.1418 81.03 17.0118 80.92 17.9318 80.92C18.4518 80.92 19.0018 80.96 19.5818 81.04C20.1618 81.1 20.7718 81.21 21.4118 81.37C22.0718 81.53 22.6018 81.78 23.0018 82.12C23.4218 82.46 23.6318 82.86 23.6318 83.32C23.6318 83.76 23.4918 84.22 23.2118 84.7C22.9318 85.16 22.5518 85.39 22.0718 85.39C21.8918 85.39 21.4018 85.2 20.6018 84.82C19.8018 84.44 18.9118 84.25 17.9318 84.25C16.8518 84.25 16.0118 84.46 15.4118 84.88C14.8318 85.28 14.5418 85.84 14.5418 86.56C14.5418 87.14 14.7818 87.65 15.2618 88.09C15.7418 88.51 16.3318 88.86 17.0318 89.14C17.7518 89.4 18.5218 89.74 19.3418 90.16C20.1818 90.56 20.9518 91 21.6518 91.48C22.3718 91.96 22.9718 92.66 23.4518 93.58C23.9318 94.48 24.1718 95.54 24.1718 96.76C24.1718 98.84 23.5118 100.45 22.1918 101.59C20.8918 102.71 19.1718 103.27 17.0318 103.27C15.1318 103.27 13.5018 102.88 12.1418 102.1C10.7818 101.32 10.1018 100.47 10.1018 99.55ZM26.0157 97.12V94.57C26.0157 92.93 26.6557 91.52 27.9357 90.34C29.2157 89.16 30.7657 88.57 32.5857 88.57C34.2857 88.57 35.7357 89.11 36.9357 90.19C38.1557 91.25 38.7657 92.59 38.7657 94.21C38.7657 94.81 38.6857 95.31 38.5257 95.71C38.3857 96.09 38.1557 96.36 37.8357 96.52C37.5357 96.68 37.2557 96.78 36.9957 96.82C36.7357 96.86 36.3957 96.88 35.9757 96.88H29.8857V97.33C29.8857 98.19 30.2057 98.89 30.8457 99.43C31.4857 99.95 32.3357 100.21 33.3957 100.21C34.1557 100.21 34.9057 100.02 35.6457 99.64C36.3857 99.26 36.8657 99.07 37.0857 99.07C37.5057 99.07 37.8557 99.27 38.1357 99.67C38.4157 100.05 38.5557 100.42 38.5557 100.78C38.5557 101.34 38.0457 101.9 37.0257 102.46C36.0257 103 34.7757 103.27 33.2757 103.27C31.1357 103.27 29.3857 102.71 28.0257 101.59C26.6857 100.45 26.0157 98.96 26.0157 97.12ZM29.8857 94.6H34.2657C34.5857 94.6 34.8057 94.55 34.9257 94.45C35.0657 94.33 35.1357 94.11 35.1357 93.79C35.1357 93.09 34.8757 92.52 34.3557 92.08C33.8557 91.64 33.2357 91.42 32.4957 91.42C31.7957 91.42 31.1857 91.64 30.6657 92.08C30.1457 92.5 29.8857 93.06 29.8857 93.76V94.6ZM41.0869 101.77V89.95C41.0869 89.59 41.2569 89.3 41.5969 89.08C41.9569 88.86 42.4169 88.75 42.9769 88.75C43.4769 88.75 43.8869 88.86 44.2069 89.08C44.5469 89.3 44.7169 89.59 44.7169 89.95V91.18C45.0369 90.48 45.5369 89.87 46.2169 89.35C46.8969 88.83 47.6269 88.57 48.4069 88.57H49.3369C49.6969 88.57 50.0169 88.74 50.2969 89.08C50.5969 89.42 50.7469 89.81 50.7469 90.25C50.7469 90.71 50.5969 91.11 50.2969 91.45C50.0169 91.79 49.6969 91.96 49.3369 91.96H48.4069C47.4869 91.96 46.6769 92.37 45.9769 93.19C45.2969 94.01 44.9569 95.08 44.9569 96.4V101.77C44.9569 102.07 44.7569 102.35 44.3569 102.61C43.9569 102.87 43.4969 103 42.9769 103C42.4369 103 41.9869 102.88 41.6269 102.64C41.2669 102.38 41.0869 102.09 41.0869 101.77ZM51.0755 90.22C51.0755 89.8 51.3655 89.42 51.9455 89.08C52.5455 88.74 53.1155 88.57 53.6555 88.57C54.2355 88.57 54.6155 88.79 54.7955 89.23L58.1255 97.93L61.4555 89.29C61.6355 88.81 62.0055 88.57 62.5655 88.57C63.0455 88.57 63.5955 88.75 64.2155 89.11C64.8355 89.45 65.1455 89.83 65.1455 90.25C65.1455 90.43 65.1055 90.6 65.0255 90.76L59.8955 102.64C59.6755 103.1 59.0855 103.33 58.1255 103.33C57.1655 103.33 56.5855 103.1 56.3855 102.64L51.2255 90.76C51.1255 90.62 51.0755 90.44 51.0755 90.22ZM66.6289 83.68C66.6289 83.16 66.8289 82.72 67.2289 82.36C67.6489 81.98 68.1589 81.79 68.7589 81.79C69.3389 81.79 69.8289 81.98 70.2289 82.36C70.6489 82.72 70.8589 83.16 70.8589 83.68C70.8589 84.18 70.6489 84.62 70.2289 85C69.8289 85.38 69.3389 85.57 68.7589 85.57C68.1589 85.57 67.6489 85.38 67.2289 85C66.8289 84.62 66.6289 84.18 66.6289 83.68ZM66.8389 101.77V89.95C66.8389 89.59 67.0189 89.3 67.3789 89.08C67.7389 88.86 68.1989 88.75 68.7589 88.75C69.3189 88.75 69.7789 88.86 70.1389 89.08C70.5189 89.3 70.7089 89.59 70.7089 89.95V101.77C70.7089 102.07 70.5089 102.35 70.1089 102.61C69.7289 102.87 69.2789 103 68.7589 103C68.2189 103 67.7589 102.88 67.3789 102.64C67.0189 102.38 66.8389 102.09 66.8389 101.77ZM73.2143 97.12V94.72C73.2143 92.88 73.7543 91.4 74.8343 90.28C75.9143 89.14 77.5343 88.57 79.6943 88.57C81.0543 88.57 82.1943 88.81 83.1143 89.29C84.0343 89.77 84.4943 90.31 84.4943 90.91C84.4943 91.33 84.3443 91.75 84.0443 92.17C83.7443 92.59 83.3843 92.8 82.9643 92.8C82.8443 92.8 82.4843 92.66 81.8843 92.38C81.3043 92.1 80.6743 91.96 79.9943 91.96C78.0543 91.96 77.0843 92.88 77.0843 94.72V97.12C77.0843 98.96 78.0643 99.88 80.0243 99.88C80.7043 99.88 81.3343 99.73 81.9143 99.43C82.4943 99.13 82.8643 98.98 83.0243 98.98C83.5043 98.98 83.8943 99.18 84.1943 99.58C84.5143 99.98 84.6743 100.39 84.6743 100.81C84.6743 101.37 84.2643 101.89 83.4443 102.37C82.6443 102.85 81.6443 103.14 80.4443 103.24L80.0543 104.53C81.0343 104.57 81.7743 104.8 82.2743 105.22C82.7743 105.66 83.0243 106.2 83.0243 106.84C83.0243 107.5 82.7643 108.1 82.2443 108.64C81.7443 109.2 80.9543 109.48 79.8743 109.48C79.2743 109.48 78.6943 109.4 78.1343 109.24C77.5943 109.1 77.3243 108.89 77.3243 108.61C77.3243 108.43 77.3843 108.2 77.5043 107.92C77.6443 107.64 77.8143 107.5 78.0143 107.5C78.0743 107.5 78.2843 107.57 78.6443 107.71C79.0043 107.85 79.3743 107.92 79.7543 107.92C80.6943 107.92 81.1643 107.59 81.1643 106.93C81.1643 106.27 80.6843 105.9 79.7243 105.82L78.0743 105.67L78.7643 103.21C76.9243 103.05 75.5343 102.43 74.5943 101.35C73.6743 100.25 73.2143 98.84 73.2143 97.12ZM86.045 97.12V94.66C86.045 93.02 86.685 91.6 87.965 90.4C89.245 89.18 90.775 88.57 92.555 88.57C94.295 88.57 95.815 89.17 97.115 90.37C98.415 91.57 99.065 93 99.065 94.66V97.12C99.065 98.74 98.415 100.17 97.115 101.41C95.815 102.65 94.295 103.27 92.555 103.27C90.815 103.27 89.295 102.65 87.995 101.41C86.695 100.17 86.045 98.74 86.045 97.12ZM89.915 97.12C89.915 97.84 90.175 98.48 90.695 99.04C91.215 99.6 91.835 99.88 92.555 99.88C93.255 99.88 93.865 99.6 94.385 99.04C94.925 98.48 95.195 97.84 95.195 97.12V94.66C95.195 93.98 94.925 93.36 94.385 92.8C93.865 92.24 93.255 91.96 92.555 91.96C91.835 91.96 91.215 92.24 90.695 92.8C90.175 93.34 89.915 93.96 89.915 94.66V97.12ZM101.856 102.58C101.476 102.18 101.286 101.7 101.286 101.14C101.286 100.58 101.476 100.1 101.856 99.7C102.256 99.3 102.746 99.1 103.326 99.1C103.886 99.1 104.366 99.3 104.766 99.7C105.166 100.1 105.366 100.58 105.366 101.14C105.366 101.68 105.166 102.16 104.766 102.58C104.366 102.98 103.886 103.18 103.326 103.18C102.746 103.18 102.256 102.98 101.856 102.58ZM101.436 82.6C101.436 82.08 101.606 81.68 101.946 81.4C102.306 81.1 102.756 80.95 103.296 80.95C103.836 80.95 104.286 81.1 104.646 81.4C105.006 81.7 105.186 82.1 105.186 82.6C105.186 83.92 105.116 86.12 104.976 89.2C104.836 92.28 104.766 94.48 104.766 95.8C104.766 96.16 104.606 96.44 104.286 96.64C103.986 96.84 103.656 96.94 103.296 96.94C102.316 96.94 101.826 96.56 101.826 95.8C101.826 94.48 101.756 92.28 101.616 89.2C101.496 86.12 101.436 83.92 101.436 82.6Z" fill="#F2A54A"/>
</svg>
