<svg width="116" height="117" viewBox="0 0 116 117" fill="none" xmlns="http://www.w3.org/2000/svg">
<rect width="116" height="117" rx="26" fill="#0D1316"/>
<path d="M61.1273 28.675V53H57.1373V36.34L49.7173 53H46.9523L39.4973 36.34V53H35.5073V28.675H39.8123L48.3523 47.75L56.8573 28.675H61.1273ZM83.7316 33.715L71.9016 62.065H67.7716L71.6916 52.685L64.0966 33.715H68.5416L73.9666 48.415L79.6016 33.715H83.7316Z" fill="white"/>
<path d="M28.0671 66.675V91H24.0771V80.36H12.6321V91H8.64209V66.675H12.6321V77.105H24.0771V66.675H28.0671ZM41.6848 91.315C39.8648 91.315 38.2198 90.9067 36.7498 90.09C35.2798 89.25 34.1248 88.0833 33.2848 86.59C32.4448 85.0733 32.0248 83.3233 32.0248 81.34C32.0248 79.38 32.4565 77.6417 33.3198 76.125C34.1832 74.6083 35.3615 73.4417 36.8548 72.625C38.3482 71.8083 40.0165 71.4 41.8598 71.4C43.7032 71.4 45.3715 71.8083 46.8648 72.625C48.3582 73.4417 49.5365 74.6083 50.3998 76.125C51.2632 77.6417 51.6948 79.38 51.6948 81.34C51.6948 83.3 51.2515 85.0383 50.3648 86.555C49.4782 88.0717 48.2648 89.25 46.7248 90.09C45.2082 90.9067 43.5282 91.315 41.6848 91.315ZM41.6848 87.85C42.7115 87.85 43.6682 87.605 44.5548 87.115C45.4648 86.625 46.1998 85.89 46.7598 84.91C47.3198 83.93 47.5998 82.74 47.5998 81.34C47.5998 79.94 47.3315 78.7617 46.7948 77.805C46.2582 76.825 45.5465 76.09 44.6598 75.6C43.7732 75.11 42.8165 74.865 41.7898 74.865C40.7632 74.865 39.8065 75.11 38.9198 75.6C38.0565 76.09 37.3682 76.825 36.8548 77.805C36.3415 78.7617 36.0848 79.94 36.0848 81.34C36.0848 83.4167 36.6098 85.0267 37.6598 86.17C38.7332 87.29 40.0748 87.85 41.6848 87.85ZM78.9842 71.4C80.5008 71.4 81.8542 71.715 83.0442 72.345C84.2575 72.975 85.2025 73.9083 85.8792 75.145C86.5792 76.3817 86.9292 77.875 86.9292 79.625V91H82.9742V80.22C82.9742 78.4933 82.5425 77.175 81.6792 76.265C80.8158 75.3317 79.6375 74.865 78.1442 74.865C76.6508 74.865 75.4608 75.3317 74.5742 76.265C73.7108 77.175 73.2792 78.4933 73.2792 80.22V91H69.3242V80.22C69.3242 78.4933 68.8925 77.175 68.0292 76.265C67.1658 75.3317 65.9875 74.865 64.4942 74.865C63.0008 74.865 61.8108 75.3317 60.9242 76.265C60.0608 77.175 59.6292 78.4933 59.6292 80.22V91H55.6392V71.715H59.6292V73.92C60.2825 73.1267 61.1108 72.5083 62.1142 72.065C63.1175 71.6217 64.1908 71.4 65.3342 71.4C66.8742 71.4 68.2508 71.7267 69.4642 72.38C70.6775 73.0333 71.6108 73.9783 72.2642 75.215C72.8475 74.0483 73.7575 73.1267 74.9942 72.45C76.2308 71.75 77.5608 71.4 78.9842 71.4ZM109.681 80.885C109.681 81.6083 109.635 82.2617 109.541 82.845H94.8063C94.923 84.385 95.4947 85.6217 96.5213 86.555C97.548 87.4883 98.808 87.955 100.301 87.955C102.448 87.955 103.965 87.0567 104.851 85.26H109.156C108.573 87.0333 107.511 88.4917 105.971 89.635C104.455 90.755 102.565 91.315 100.301 91.315C98.458 91.315 96.8013 90.9067 95.3313 90.09C93.8847 89.25 92.7413 88.0833 91.9013 86.59C91.0847 85.0733 90.6763 83.3233 90.6763 81.34C90.6763 79.3567 91.073 77.6183 91.8663 76.125C92.683 74.6083 93.8147 73.4417 95.2613 72.625C96.7313 71.8083 98.4113 71.4 100.301 71.4C102.121 71.4 103.743 71.7967 105.166 72.59C106.59 73.3833 107.698 74.5033 108.491 75.95C109.285 77.3733 109.681 79.0183 109.681 80.885ZM105.516 79.625C105.493 78.155 104.968 76.9767 103.941 76.09C102.915 75.2033 101.643 74.76 100.126 74.76C98.7497 74.76 97.5713 75.2033 96.5913 76.09C95.6113 76.9533 95.028 78.1317 94.8413 79.625H105.516Z" fill="#00BCD4"/>
</svg>
